<?xml version="1.0" encoding="UTF-8"?>
<!DOCTYPE svg PUBLIC "-//W3C//DTD SVG 1.1//EN" "http://www.w3.org/Graphics/SVG/1.1/DTD/svg11.dtd">
<!-- Creator: CorelDRAW 2021 (64-Bit) -->
<svg xmlns="http://www.w3.org/2000/svg" xml:space="preserve" width="228.6mm" height="160.867mm" version="1.1" style="shape-rendering:geometricPrecision; text-rendering:geometricPrecision; image-rendering:optimizeQuality; fill-rule:evenodd; clip-rule:evenodd"
viewBox="0 0 22859.98 16086.66"
 xmlns:xlink="http://www.w3.org/1999/xlink"
 xmlns:xodm="http://www.corel.com/coreldraw/odm/2003">
 <defs>
  <style type="text/css">
   <![CDATA[
    .str0 {stroke:white;stroke-width:169.33;stroke-linejoin:round;stroke-miterlimit:22.9256}
    .fil1 {fill:#3C3A81}
    .fil0 {fill:#D73135}
    .fil2 {fill:#D83135}
   ]]>
  </style>
 </defs>
 <g id="Layer_x0020_1">
  <metadata id="CorelCorpID_0Corel-Layer"/>
  <path class="fil0 str0" d="M17988.26 8267.6c89.63,-74.04 506.36,-276.19 646.26,-350.2 210.76,-111.55 450.93,-261.95 659.41,-352.91 113.57,-70.17 226.69,-130.57 352.32,-206.13l1021.62 -660.53c165.23,-116.56 1149.51,-842.39 1261.4,-1009.48l-1243.19 747.36c-221.42,120.92 -1140.96,643.38 -1307.68,682.45 -86,99.21 -1292.59,638.81 -1514.28,714.44l-1181.66 486.89c-746.6,275.8 -1720.67,659.71 -2480.87,883.38l-1316.4 393.78c-1642.82,408.08 -2331.4,630.89 -4148.46,897.88 -758.52,111.46 -912.42,91.63 -1549.94,160.27 -987.23,106.32 -2260.64,29.9 -3093.96,-166.49 -929.94,-219.14 -1638.02,-614.38 -2067.49,-1324.81 -505.27,-835.86 -330.17,-1867.62 92.05,-2652.93 647.72,-1204.6 1611.73,-1635.76 1672.96,-1719.34 -185.17,43.15 -503.51,174.54 -663.71,261.46 -1138.02,617.55 -2225.81,1838.38 -2308.06,3186.73l0 325.04c13.54,220.66 55.3,443.71 129.47,667.09 468.15,1409.51 2021.04,2076.07 3405.21,2229.87 398.68,44.31 756.9,72.75 1099.35,86.33l941.52 0c470.14,-18.68 954.81,-64.6 1522.59,-135 563.88,-69.87 1092.29,-154.47 1618.55,-259.84 1713.19,-343.01 2811.27,-672.12 4449.43,-1213.71l2028.35 -775.17c107.48,-47.55 228.21,-90.73 336.72,-139.9 106.63,-48.28 211,-97.05 329.11,-147.52l1309.38 -609.01z"/>
  <path class="fil1 str0" d="M13995.23 6669.02l15.43 -60.27 -15.43 60.27zm0 0c-11.26,135.36 -549.28,1685.01 -560.7,1822.32l1289.61 0c12.22,-146.78 1144.24,-3597.56 1233.58,-3981.04 -429.87,0 -859.84,0.96 -1289.68,-0.03 -583.54,-1.33 -544.1,30.33 -835.53,482.12 -172.71,267.75 -325.79,519.97 -493.94,795.73l-520.83 796.79 -268.15 -1666.26c-69.6,-385.27 -137.81,-410.87 -572.72,-408.52 -326.98,1.76 -654.4,0.17 -981.42,0.17 -124.81,535.63 -579.34,1815.34 -768.78,2483.32 -133.05,469.04 -366.53,1075.97 -464.77,1497.72l1289.61 0c6.55,-78.61 515.63,-1773.15 588.74,-1878.38l0 1878.38 1177.49 0c24.54,-91.88 511.46,-824.04 571.76,-914.14 107.31,-160.3 195.29,-306.99 297.35,-459.6 60.16,-90 246.99,-403.58 308.38,-448.58z"/>
  <path class="fil1 str0" d="M6341.55 7369.92c0,426.75 46.49,688.28 420.23,953.51 717.79,509.41 2535.81,319.6 3116.67,-1117.29 123.98,-306.76 305.63,-970.47 426.33,-1339.91 52.29,-160.06 407.25,-1218.41 410.3,-1355.93l-953.18 0c-377.29,0 -416.2,204.37 -542.79,634.71l-566.29 1788.71c-296.89,748.78 -965.57,672.19 -965.57,352.09 0,-345.8 305.63,-1181.73 416.99,-1545.5 419.84,-1371.7 615.14,-1230.01 -865.53,-1230.01 -101.49,0 -81.89,92.29 -150.73,297.88 -145.66,435.04 -746.43,2255.81 -746.43,2561.74z"/>
  <path class="fil1 str0" d="M3481.94 5996.2c0,267.85 -6.03,363.94 167.05,589.87 280.7,366.43 1122.59,387.75 1122.59,699.74 0,254.01 -583.61,224.27 -728.91,224.27 -358.15,0 -625.34,-163.91 -841.07,-308.38 -19.86,85.3 -77.98,193.84 -112.15,280.37 -79.6,201.52 -323.34,712.09 -336.42,869.08 700.43,336.09 2079.71,311.65 2764.18,-207.56 587.12,-445.39 1079.94,-1598.94 217.72,-2017.39 -377.72,-183.31 -823.19,-201.99 -823.19,-410.36 0,-298.91 767.92,-245.17 1069.45,-144.28 134.43,45 249.43,118.41 360.36,144.28l420.53 -1065.34c-659.4,-153.64 -393.71,-196.26 -1261.59,-196.26 -500.47,0 -1087.03,183.78 -1374.31,391.92 -357.26,258.85 -644.24,695.97 -644.24,1150.04z"/>
  <path class="fil1 str0" d="M17051.1 7313.86l869.08 -1317.66c0,1051.26 155.56,1007.69 -157.02,1104.54 -194.31,60.17 -545.77,199.27 -712.06,213.12zm846.66 224.27l1480.27 -681.3c353.05,-175.39 1047.23,-506.62 1385.57,-708.64 109.6,-65.4 221.03,-124.01 324.61,-180.04 203.27,-109.93 860.03,-505.69 953.18,-644.8 -121.26,32.35 -478.15,264.9 -664.74,344.51l-1401.99 616.55c-132.69,57.32 -617.62,262.56 -736.79,272.49l-84.08 -1009.34c-17.45,-361.3 -56.12,-669.44 -56.12,-1037.26 -336.73,0 -673.55,-0.99 -1010.24,-0.96 -577.95,0.03 -651.33,348.31 -1080.57,937.98 -122.78,168.65 -2056,2929.92 -2086.46,3044.02 450.69,-10.06 2090.97,-608.41 2607.03,-813.31 61.39,-24.37 112.88,-38.54 184.54,-67.58 89.04,-36.06 89.37,-51.82 185.79,-72.32z"/>
  <path class="fil1 str0" d="M17988.26 8577.37l-13.55 308.38 1403.32 0.03 -84.1 -1011.52c-208.48,90.96 -448.65,241.36 -659.41,352.91 -139.9,74.01 -556.63,276.16 -646.26,350.2z"/>
  <polygon class="fil2 str0" points="21929.27,5688.35 21957.28,5688.35 21933.94,5655.64 "/>
 </g>
</svg>
